<?xml version="1.0" encoding="utf-8"?>
<!-- Generator: Adobe Illustrator 24.1.1, SVG Export Plug-In . SVG Version: 6.00 Build 0)  -->
<svg version="1.1" xmlns="http://www.w3.org/2000/svg" xmlns:xlink="http://www.w3.org/1999/xlink" x="0px" y="0px"
	 viewBox="0 0 1080 1080" style="enable-background:new 0 0 1080 1080;" xml:space="preserve">
<style type="text/css">
	.st0{fill:url(#SVGID_1_);}
</style>
<g id="katman_5">
</g>
<g id="katman_6">
	<linearGradient id="SVGID_1_" gradientUnits="userSpaceOnUse" x1="672.2992" y1="279.741" x2="377.7889" y2="961.8793">
		<stop  offset="1.656979e-02" style="stop-color:#617BBA"/>
		<stop  offset="6.150004e-02" style="stop-color:#5D90C9"/>
		<stop  offset="0.116" style="stop-color:#59A1D5"/>
		<stop  offset="0.1839" style="stop-color:#57ACDD"/>
		<stop  offset="0.2791" style="stop-color:#55B3E2"/>
		<stop  offset="0.5435" style="stop-color:#55B5E3"/>
	</linearGradient>
	<path class="st0" d="M911.5,221.8C888.4,196.6,769.3,71.7,585.7,71.7c-34.1,0-107.1,4.3-185.6,44.9
		c-130,67.2-230.9,210.7-231.5,375.9c-0.6,156.4,89,260.3,107.9,281.3c123,136.8,288.8,139.5,313,139.5
		c191.5-0.1,306.3-131.3,322.2-150.1c-6.3-10.1-12.7-21-19-32.8c-10.3-19.5-18.6-38.2-25.2-55.4c-12.2,18.5-30.8,42.8-57.9,66.8
		c-6.6,5.9-28.1,24.3-57.3,40.8C678.2,824,603.8,825,589.3,825c-129.5,0-215.3-78.5-228.2-90.6c-12.7-12-106.6-103.5-104.3-247.7
		c1.5-93.4,42.4-159.4,58.4-182.6c67.4-98,165.2-126.8,188.3-133c18.2-4.9,134.7-34,251.4,33c60,34.4,95.1,79.9,112.4,105.9
		c5.1-13.2,11.1-27.2,18.3-41.9C894.1,250.9,902.9,235.5,911.5,221.8z"/>
</g>
</svg>
