<svg width="265" height="153" viewBox="0 0 265 153" fill="none" xmlns="http://www.w3.org/2000/svg">
<path fill-rule="evenodd" clip-rule="evenodd" d="M165.574 2.64301C181.425 0.738865 196.247 0.605745 209.324 2.15363C236.643 5.38748 255.973 15.8928 261.598 32.4822C267.224 49.0716 258.273 69.1679 238.556 88.353C218.899 107.481 188.793 125.427 152.889 137.603C116.984 149.779 82.172 153.849 54.9345 150.624C27.6152 147.391 8.28557 136.885 2.65961 120.296C-2.96634 103.706 5.98543 83.6101 25.7018 64.4251C35.2917 55.0937 47.3683 46.0434 61.3918 37.807C61.6825 37.2441 61.9797 36.685 62.2834 36.13C18.4656 61.4653 -7.04212 94.8017 1.71259 120.617C13.3551 154.948 81.1827 162.977 153.21 138.55C225.237 114.124 274.188 66.4917 262.546 32.161C253.836 6.47904 213.684 -4.48397 163.853 1.84815C164.431 2.10641 165.005 2.37139 165.574 2.64301Z" fill="#F1F3F5"/>
</svg>
