<svg width="194" height="112" viewBox="0 0 194 112" fill="none" xmlns="http://www.w3.org/2000/svg">
<path id="Subtract" fill-rule="evenodd" clip-rule="evenodd" d="M156.184 2.08764C174.749 4.78079 187.706 12.2781 191.587 23.7215C195.643 35.6826 189.206 50.254 174.825 64.2479C160.502 78.1844 138.552 91.2733 112.357 100.156C86.1634 109.04 60.7788 112.004 40.9334 109.654C21.0062 107.296 7.0335 99.6457 2.97714 87.6846C-0.890327 76.2804 4.78092 62.5035 17.782 49.1166C17.8133 48.603 17.8495 48.0907 17.8906 47.5798C4.23177 61.3075 -2.10701 75.8065 2.03012 88.0057C10.5334 113.08 60.0725 118.944 112.679 101.104C165.285 83.2632 201.037 48.4743 192.534 23.4004C188.383 11.1599 174.452 3.49737 155.159 0.935791C155.505 1.31638 155.846 1.70034 156.184 2.08764Z" fill="#F1F3F5"/>
</svg>
